<svg xmlns="http://www.w3.org/2000/svg" viewBox="0 0 200 240" width="200" height="240">
  <!-- 身体 -->
  <ellipse cx="100" cy="160" rx="65" ry="75" fill="#B8D4E3"/>
  <!-- 肚子 -->
  <ellipse cx="100" cy="175" rx="45" ry="50" fill="#D4EAF5"/>
  <!-- 头 -->
  <ellipse cx="100" cy="95" rx="60" ry="58" fill="#B8D4E3"/>
  <!-- 左耳 -->
  <ellipse cx="52" cy="55" rx="22" ry="28" fill="#B8D4E3" transform="rotate(-15 52 55)"/>
  <ellipse cx="52" cy="55" rx="12" ry="16" fill="#8FBCD9" transform="rotate(-15 52 55)"/>
  <!-- 右耳 -->
  <ellipse cx="148" cy="55" rx="22" ry="28" fill="#B8D4E3" transform="rotate(15 148 55)"/>
  <ellipse cx="148" cy="55" rx="12" ry="16" fill="#8FBCD9" transform="rotate(15 148 55)"/>
  <!-- 左眼白 -->
  <ellipse cx="78" cy="88" rx="18" ry="20" fill="white"/>
  <!-- 右眼白 -->
  <ellipse cx="122" cy="88" rx="18" ry="20" fill="white"/>
  <!-- 左眼珠 -->
  <ellipse cx="82" cy="92" rx="11" ry="13" fill="#2D3436"/>
  <!-- 右眼珠 -->
  <ellipse cx="126" cy="92" rx="11" ry="13" fill="#2D3436"/>
  <!-- 左眼高光 -->
  <circle cx="85" cy="88" r="4" fill="white"/>
  <circle cx="79" cy="95" r="2" fill="white" opacity="0.6"/>
  <!-- 右眼高光 -->
  <circle cx="129" cy="88" r="4" fill="white"/>
  <circle cx="123" cy="95" r="2" fill="white" opacity="0.6"/>
  <!-- 眉毛（贱萌表情） -->
  <path d="M66 70 Q78 65 88 72" stroke="#2D3436" stroke-width="3.5" fill="none" stroke-linecap="round"/>
  <path d="M112 72 Q122 65 134 70" stroke="#2D3436" stroke-width="3.5" fill="none" stroke-linecap="round"/>
  <!-- 鼻子 -->
  <ellipse cx="100" cy="108" rx="7" ry="5" fill="#8FBCD9"/>
  <!-- 嘴巴（贱萌笑） -->
  <path d="M82 120 Q100 140 118 120" stroke="#2D3436" stroke-width="3.5" fill="none" stroke-linecap="round"/>
  <!-- 腮红左 -->
  <ellipse cx="60" cy="105" rx="14" ry="9" fill="#FFB3BA" opacity="0.6"/>
  <!-- 腮红右 -->
  <ellipse cx="140" cy="105" rx="14" ry="9" fill="#FFB3BA" opacity="0.6"/>
  <!-- 左手臂 -->
  <ellipse cx="38" cy="170" rx="18" ry="24" fill="#B8D4E3" transform="rotate(-20 38 170)"/>
  <!-- 右手臂 -->
  <ellipse cx="162" cy="170" rx="18" ry="24" fill="#B8D4E3" transform="rotate(20 162 170)"/>
  <!-- 左脚 -->
  <ellipse cx="72" cy="232" rx="25" ry="12" fill="#B8D4E3"/>
  <!-- 右脚 -->
  <ellipse cx="128" cy="232" rx="25" ry="12" fill="#B8D4E3"/>
  <!-- 尾巴尖尖 -->
  <ellipse cx="100" cy="235" rx="8" ry="5" fill="#8FBCD9"/>
</svg>
